<svg xmlns="http://www.w3.org/2000/svg" xmlns:xlink="http://www.w3.org/1999/xlink" version="1.1" x="0px" y="0px" viewBox="-717 975 100 125" width="24" height="24"
  enable-background="new -717 975 100 100" xml:space="preserve">
  <path fill="#426b88" fill-rule="evenodd" clip-rule="evenodd" d="M-619.5,1027.5h-11.1c-1,18.3-15.7,32.9-33.9,33.9v11.1c0,0.6-0.4,1-1,1h-2  c-0.6,0-1-0.4-1-1v-11.1c-18.3-1-32.9-15.7-33.9-33.9h-11.1c-0.6,0-1-0.4-1-1v-2c0-0.6,0.4-1,1-1h11.1c1-18.3,15.7-32.9,33.9-33.9  v-11.1c0-0.6,0.4-1,1-1h2c0.6,0,1,0.4,1,1v11.1c18.3,1,32.9,15.7,33.9,33.9h11.1c0.6,0,1,0.4,1,1v2  C-618.5,1027.1-618.9,1027.5-619.5,1027.5z M-666.5,993.5c-17.7,0-32,14.3-32,32s14.3,32,32,32s32-14.3,32-32  S-648.8,993.5-666.5,993.5z M-666.5,1043.5c-9.9,0-18-8.1-18-18c0-9.9,8.1-18,18-18s18,8.1,18,18  C-648.5,1035.4-656.6,1043.5-666.5,1043.5z M-666.5,1011.5c-7.7,0-14,6.3-14,14c0,7.7,6.3,14,14,14s14-6.3,14-14  C-652.5,1017.8-658.8,1011.5-666.5,1011.5z"
  />
</svg>