<svg xmlns:svg="http://www.w3.org/2000/svg" xmlns="http://www.w3.org/2000/svg" version="1.1" x="0px" y="0px" viewBox="0 0 100 125" width="24" height="24">
  <g transform="translate(0,-952.36218)">
    <path style="text-indent:0;text-transform:none;direction:ltr;block-progression:tb;baseline-shift:baseline;color:#426b88;enable-background:accumulate;"
      d="m 49.734939,964.37406 a 2.0001999,2.0001999 0 0 0 -0.625,0.1875 l -44.0000013,22 a 2.0001999,2.0001999 0 0 0 0,3.59375 l 44.0000013,21.99999 a 2.0001999,2.0001999 0 0 0 1.8124,0 l 44,-21.99999 a 2.0001999,2.0001999 0 0 0 0,-3.59375 l -44,-22 a 2.0001999,2.0001999 0 0 0 -1.1874,-0.1875 z m 0.2812,4.25 39.5,19.75 -39.5,19.75004 -39.500001,-19.75004 39.500001,-19.75 z M 5.9536377,1000.3428 a 2.0001999,2.0001999 0 0 0 -0.8437,3.8125 l 44.0000013,22 a 2.0001999,2.0001999 0 0 0 1.8124,0 l 44,-22 a 2.0124508,2.0124508 0 1 0 -1.8124,-3.5937 l -43.0938,21.5624 -43.0938013,-21.5624 a 2.0001999,2.0001999 0 0 0 -0.9687,-0.2188 z m 0,14 a 2.0001999,2.0001999 0 0 0 -0.8437,3.8125 l 44.0000013,22 a 2.0001999,2.0001999 0 0 0 1.8124,0 l 44,-22 a 2.0124731,2.0124731 0 1 0 -1.8124,-3.5938 l -43.0938,21.5625 -43.0938013,-21.5625 a 2.0001999,2.0001999 0 0 0 -0.9687,-0.2187 z"
      fill="#426b88" fill-opacity="1" stroke="none" marker="none" visibility="visible" display="inline" overflow="visible"
    />
  </g>
</svg>