<?xml version="1.0" encoding="UTF-8" standalone="no"?>
<svg
   xmlns:dc="http://purl.org/dc/elements/1.1/"
   xmlns:cc="http://creativecommons.org/ns#"
   xmlns:rdf="http://www.w3.org/1999/02/22-rdf-syntax-ns#"
   xmlns:svg="http://www.w3.org/2000/svg"
   xmlns="http://www.w3.org/2000/svg"
   xmlns:sodipodi="http://sodipodi.sourceforge.net/DTD/sodipodi-0.dtd"
   xmlns:inkscape="http://www.inkscape.org/namespaces/inkscape"
   version="1.1"
   x="0px"
   y="0px"
   viewBox="-717 975 100 125"
   width="24"
   height="24"
   enable-background="new -717 975 100 100"
   xml:space="preserve"
   id="svg2"
   inkscape:version="0.91 r13725"
   sodipodi:docname="net.svg"><metadata
     id="metadata10"><rdf:RDF><cc:Work
         rdf:about=""><dc:format>image/svg+xml</dc:format><dc:type
           rdf:resource="http://purl.org/dc/dcmitype/StillImage" /><dc:title /></cc:Work></rdf:RDF></metadata><defs
     id="defs8" /><sodipodi:namedview
     pagecolor="#ffffff"
     bordercolor="#666666"
     borderopacity="1"
     objecttolerance="10"
     gridtolerance="10"
     guidetolerance="10"
     inkscape:pageopacity="0"
     inkscape:pageshadow="2"
     inkscape:window-width="1920"
     inkscape:window-height="1056"
     id="namedview6"
     showgrid="false"
     inkscape:zoom="16"
     inkscape:cx="6.0402461"
     inkscape:cy="18.715096"
     inkscape:window-x="0"
     inkscape:window-y="24"
     inkscape:window-maximized="1"
     inkscape:current-layer="svg2" /><path
     style="clip-rule:evenodd;fill:none;fill-rule:evenodd;stroke:#426b88;stroke-width:5.20833349;stroke-miterlimit:4;stroke-dasharray:none;stroke-opacity:1"
     d="m -699.30752,991.82137 c -9.17727,0 -16.59168,7.41441 -16.59168,16.59153 0,9.1773 7.41441,16.5917 16.59168,16.5917 9.17727,0 16.59168,-7.4144 16.59168,-16.5917 0,-9.17712 -7.41441,-16.59153 -16.59168,-16.59153 z"
     id="path4142-6"
     inkscape:connector-curvature="0" /><path
     style="clip-rule:evenodd;fill:none;fill-rule:evenodd;stroke:#426b88;stroke-width:5.20833349;stroke-miterlimit:4;stroke-dasharray:none;stroke-opacity:1"
     d="m -670.26711,1038.5209 c -9.17727,0 -16.59168,7.4143 -16.59168,16.5915 0,9.1773 7.41441,16.5916 16.59168,16.5916 9.17727,0 16.59168,-7.4143 16.59168,-16.5916 0,-9.1772 -7.41441,-16.5915 -16.59168,-16.5915 z"
     id="path4142-6-8"
     inkscape:connector-curvature="0" /><path
     style="clip-rule:evenodd;fill:none;fill-rule:evenodd;stroke:#426b88;stroke-width:5.20833349;stroke-miterlimit:4;stroke-dasharray:none;stroke-opacity:1"
     d="m -635.77792,1007.4465 c -9.17727,0 -16.59168,7.4144 -16.59168,16.5915 0,9.1773 7.41441,16.5917 16.59168,16.5917 9.17727,0 16.59168,-7.4144 16.59168,-16.5917 0,-9.1771 -7.41441,-16.5915 -16.59168,-16.5915 z"
     id="path4142-6-9"
     inkscape:connector-curvature="0" /><path
     style="clip-rule:evenodd;fill:#426b88;fill-rule:evenodd"
     d="m -659.89334,1043.0432 12.27033,-10.7448 c 0.10979,-0.1003 0.68795,0.4657 1.13461,0.8986 0.63162,0.612 1.89682,2.1225 1.89682,2.1225 0.56947,0.6366 0.76241,1.2243 0.76241,1.2243 l -12.27034,10.7447 c -0.18927,0.201 -4.01492,-4.0406 -3.79387,-4.2452 z"
     id="path4144-8-8"
     inkscape:connector-curvature="0"
     sodipodi:nodetypes="csasccc" /><path
     style="clip-rule:evenodd;fill:#426b88;fill-rule:evenodd"
     d="m -689.69736,1020.4194 10.45685,21.4838 c 0.0966,0.195 -0.59016,0.6235 -1.11714,0.9574 -0.7451,0.4722 -2.55086,1.2633 -2.55086,1.2633 -0.76512,0.3796 -1.4343,0.3058 -1.4343,0.3058 l -10.45666,-21.4836 c -0.20036,-0.3505 4.9015,-2.92 5.10198,-2.5269 z"
     id="path4144-8-8-9"
     inkscape:connector-curvature="0"
     sodipodi:nodetypes="csasccc"
     inkscape:transform-center-x="-3.2552083"
     inkscape:transform-center-y="-1.6276042" /></svg>