<svg width="24" height="24" xmlns="http://www.w3.org/2000/svg" xmlns:xlink="http://www.w3.org/1999/xlink" version="1.1" x="0px" y="0px" viewBox="0 0 64 80"
  enable-background="new 0 0 64 64" xml:space="preserve" fill="#426b88">
  <g display="none">
    <rect x="374.502" y="-437.502" transform="matrix(1.067751e-10 -1 1 1.067751e-10 310.5031 458.5)" display="inline" fill="#000000"
      width="20" height="1023" />
    <rect x="-54.018" y="-37.67" display="inline" fill="#000000" width="947.424" height="496.184" />
  </g>
  <g display="none">
    <g display="inline">
      <g>
        <path d="M17.272,26.127c0.839-0.143,2.016-0.25,3.677-0.25c1.677,0,2.874,0.321,3.676,0.964c0.769,0.608,1.286,1.607,1.286,2.785     s-0.392,2.178-1.108,2.856c-0.927,0.875-2.302,1.267-3.908,1.267c-0.358,0-0.679-0.017-0.929-0.054v4.302h-2.695V26.127z      M19.967,31.589c0.233,0.054,0.517,0.071,0.91,0.071c1.446,0,2.339-0.732,2.339-1.964c0-1.106-0.767-1.767-2.124-1.767     c-0.554,0-0.929,0.053-1.125,0.107V31.589z"
        />
      </g>
      <g>
        <path d="M27.47,26.127c0.999-0.161,2.302-0.25,3.677-0.25c2.285,0,3.766,0.411,4.926,1.286c1.25,0.928,2.035,2.409,2.035,4.533     c0,2.303-0.839,3.892-1.999,4.874c-1.267,1.053-3.196,1.553-5.552,1.553c-1.41,0-2.41-0.089-3.087-0.179V26.127z M30.201,35.945     c0.231,0.054,0.606,0.054,0.946,0.054c2.462,0.018,4.07-1.339,4.07-4.213c0.017-2.499-1.446-3.82-3.785-3.82     c-0.608,0-1,0.054-1.231,0.107V35.945z"
        />
      </g>
      <g>
        <path d="M39.723,25.967h7.353v2.231h-4.622v2.749h4.32v2.214h-4.32v4.837h-2.731V25.967z" />
      </g>
    </g>
    <g display="inline">
      <g>
        <g>
          <path d="M49.621,2C52.587,2,55,4.413,55,7.379v49.241C55,59.587,52.587,62,49.621,62H14.379C11.413,62,9,59.587,9,56.621V7.379      C9,4.413,11.413,2,14.379,2H49.621 M49.621,0H14.379C10.304,0,7,3.304,7,7.379v49.241C7,60.696,10.304,64,14.379,64h35.241      C53.696,64,57,60.696,57,56.621V7.379C57,3.304,53.696,0,49.621,0L49.621,0z"
          />
        </g>
      </g>
      <g>
        <line fill="none" stroke="#000000" stroke-width="2" stroke-miterlimit="10" x1="22.153" y1="0.707" x2="7.817" y2="15.046"
        />
        <line fill="none" stroke="#000000" stroke-width="2" stroke-miterlimit="10" x1="56.183" y1="48.954" x2="41.847" y2="63.293"
        />
      </g>
    </g>
  </g>
  <g display="none">
    <g display="inline">
      <g>
        <path d="M17.272,26.127c0.839-0.143,2.016-0.25,3.677-0.25c1.677,0,2.874,0.321,3.676,0.964c0.769,0.608,1.286,1.607,1.286,2.785     s-0.392,2.178-1.108,2.856c-0.927,0.875-2.302,1.267-3.908,1.267c-0.358,0-0.679-0.017-0.929-0.054v4.302h-2.695V26.127z      M19.967,31.589c0.233,0.054,0.517,0.071,0.91,0.071c1.446,0,2.339-0.732,2.339-1.964c0-1.106-0.767-1.767-2.124-1.767     c-0.554,0-0.929,0.053-1.125,0.107V31.589z"
        />
      </g>
      <g>
        <path d="M27.47,26.127c0.999-0.161,2.302-0.25,3.677-0.25c2.285,0,3.766,0.411,4.926,1.286c1.25,0.928,2.035,2.409,2.035,4.533     c0,2.303-0.839,3.892-1.999,4.874c-1.267,1.053-3.196,1.553-5.552,1.553c-1.41,0-2.41-0.089-3.087-0.179V26.127z M30.201,35.945     c0.231,0.054,0.606,0.054,0.946,0.054c2.462,0.018,4.07-1.339,4.07-4.213c0.017-2.499-1.446-3.82-3.785-3.82     c-0.608,0-1,0.054-1.231,0.107V35.945z"
        />
      </g>
      <g>
        <path d="M39.723,25.967h7.353v2.231h-4.622v2.749h4.32v2.214h-4.32v4.837h-2.731V25.967z" />
      </g>
    </g>
    <g display="inline">
      <g>
        <path d="M49.621,2C52.587,2,55,4.413,55,7.379v49.241C55,59.587,52.587,62,49.621,62H14.379C11.413,62,9,59.587,9,56.621V7.379     C9,4.413,11.413,2,14.379,2H49.621 M49.621,0H14.379C10.304,0,7,3.304,7,7.379v49.241C7,60.696,10.304,64,14.379,64h35.241     C53.696,64,57,60.696,57,56.621V7.379C57,3.304,53.696,0,49.621,0L49.621,0z"
        />
      </g>
    </g>
  </g>
  <g display="none">
    <g display="inline">
      <g>
        <path d="M17.272,26.127c0.839-0.143,2.016-0.25,3.677-0.25c1.677,0,2.874,0.321,3.676,0.964c0.769,0.608,1.286,1.607,1.286,2.785     s-0.392,2.178-1.108,2.856c-0.927,0.875-2.302,1.267-3.908,1.267c-0.358,0-0.679-0.017-0.929-0.054v4.302h-2.695V26.127z      M19.967,31.589c0.233,0.054,0.517,0.071,0.91,0.071c1.446,0,2.339-0.732,2.339-1.964c0-1.106-0.767-1.767-2.124-1.767     c-0.554,0-0.929,0.053-1.125,0.107V31.589z"
        />
      </g>
      <g>
        <path d="M27.47,26.127c0.999-0.161,2.302-0.25,3.677-0.25c2.285,0,3.766,0.411,4.926,1.286c1.25,0.928,2.035,2.409,2.035,4.533     c0,2.303-0.839,3.892-1.999,4.874c-1.267,1.053-3.196,1.553-5.552,1.553c-1.41,0-2.41-0.089-3.087-0.179V26.127z M30.201,35.945     c0.231,0.054,0.606,0.054,0.946,0.054c2.462,0.018,4.07-1.339,4.07-4.213c0.017-2.499-1.446-3.82-3.785-3.82     c-0.608,0-1,0.054-1.231,0.107V35.945z"
        />
      </g>
      <g>
        <path d="M39.723,25.967h7.353v2.231h-4.622v2.749h4.32v2.214h-4.32v4.837h-2.731V25.967z" />
      </g>
    </g>
    <g display="inline">
      <g>
        <path d="M49.621,1C53.138,1,56,3.862,56,7.379v49.241C56,60.138,53.138,63,49.621,63H14.379C10.862,63,8,60.138,8,56.621V7.379     C8,3.862,10.862,1,14.379,1H49.621 M49.621,0H14.379C10.304,0,7,3.304,7,7.379v49.241C7,60.696,10.304,64,14.379,64h35.241     C53.696,64,57,60.696,57,56.621V7.379C57,3.304,53.696,0,49.621,0L49.621,0z"
        />
      </g>
    </g>
  </g>
  <g>
    <g>
      <g>
        <path d="M35.217,31.786c0.017-2.499-1.446-3.82-3.785-3.82c-0.608,0-1,0.054-1.231,0.107v7.872     c0.231,0.054,0.606,0.054,0.946,0.054C33.61,36.017,35.217,34.66,35.217,31.786z"
        />
      </g>
      <g>
        <g>
          <path d="M14.379,64h35.241C53.696,64,57,60.696,57,56.621V7.379C57,3.304,53.696,0,49.621,0H14.379C10.304,0,7,3.304,7,7.379      v49.242C7,60.696,10.304,64,14.379,64z M39.723,25.967h7.353v2.231h-4.622v2.749h4.32v2.214h-4.32v4.837h-2.731V25.967z       M27.47,26.127c0.999-0.161,2.302-0.25,3.677-0.25c2.285,0,3.766,0.411,4.926,1.286c1.25,0.928,2.035,2.409,2.035,4.533      c0,2.303-0.839,3.892-1.999,4.874c-1.267,1.053-3.196,1.553-5.552,1.553c-1.41,0-2.41-0.089-3.087-0.179V26.127z M17.272,26.127      c0.839-0.143,2.016-0.25,3.677-0.25c1.677,0,2.874,0.321,3.676,0.964c0.769,0.608,1.286,1.607,1.286,2.785      s-0.392,2.178-1.108,2.856c-0.927,0.875-2.302,1.267-3.908,1.267c-0.358,0-0.679-0.017-0.929-0.054v4.302h-2.695V26.127z"
          />
        </g>
      </g>
      <g>
        <path d="M23.216,29.697c0-1.106-0.767-1.767-2.124-1.767c-0.554,0-0.929,0.053-1.125,0.107v3.552     c0.233,0.054,0.517,0.071,0.91,0.071C22.323,31.661,23.216,30.929,23.216,29.697z"
        />
      </g>
    </g>
  </g>
</svg>