<svg height="16" width="16" xmlns:dc="http://purl.org/dc/elements/1.1/" xmlns:cc="http://creativecommons.org/ns#" xmlns:rdf="http://www.w3.org/1999/02/22-rdf-syntax-ns#"
  xmlns:svg="http://www.w3.org/2000/svg" xmlns="http://www.w3.org/2000/svg" xmlns:sodipodi="http://sodipodi.sourceforge.net/DTD/sodipodi-0.dtd"
  xmlns:inkscape="http://www.inkscape.org/namespaces/inkscape" version="1.1" x="0px" y="0px" viewBox="0 0 100 125">
  <g transform="translate(0,-952.36218)">
    <path style="font-size:medium;font-style:normal;font-variant:normal;font-weight:normal;font-stretch:normal;text-indent:0;text-align:start;text-decoration:none;line-height:normal;letter-spacing:normal;word-spacing:normal;text-transform:none;direction:ltr;block-progression:tb;writing-mode:lr-tb;text-anchor:start;baseline-shift:baseline;opacity:1;color:#000000;fill:#000000;fill-opacity:1;stroke:none;stroke-width:2;marker:none;visibility:visible;display:inline;overflow:visible;enable-background:accumulate;font-family:Sans;-inkscape-font-specification:Sans"
      d="m 12,969.36218 c -2.7527028,0 -5,2.2473 -5,5 l 0,56.00002 c 0,2.7527 2.2472972,5 5,5 l 76,0 c 2.752703,0 5,-2.2473 5,-5 l 0,-46.00002 c 0,-2.7527 -2.247297,-5 -5,-5 l -39.46875,0 -5.6875,-9.5 A 1.0001,1.0001 0 0 0 42,969.36218 l -30,0 z m 0,2 29.46875,0 5.6875,9.5 a 1.0001,1.0001 0 0 0 0.84375,0.5 l 40,0 c 1.679297,0 3,1.3207 3,3 l 0,46.00002 c 0,1.6793 -1.320703,3 -3,3 l -76,0 c -1.679297,0 -3,-1.3207 -3,-3 l 0,-56.00002 c 0,-1.6793 1.320703,-3 3,-3 z"
    />
  </g>
</svg>