<svg xmlns="http://www.w3.org/2000/svg" xmlns:xlink="http://www.w3.org/1999/xlink" width="45" height="11" viewBox="0 0 45 11"><defs><path id="a" d="M0.056 10.476L4.005 10.476 4.005 0.46 0.056 0.46 0.056 10.476z"/></defs><g fill="none" fill-rule="evenodd"><path fill="#FEFEFE" d="M0 .685L0 1.776 1.157 1.776 1.157 10.366 2.299 10.366 2.299 1.776 3.47 1.776 3.47.685zM6.587.685L6.587 10.366 9.945 10.366 9.945 9.275 7.73 9.275 7.73 5.937 9.756 5.937 9.756 4.846 7.73 4.846 7.73 1.776 9.945 1.776 9.945.685z"/><path fill="#FEFEFE" d="M2.4992561,0.459328571 C2.772,0.459328571 3.02828049,0.508566667 3.26809756,0.607566667 C3.50791463,0.707090476 3.717,0.841185714 3.89590244,1.01194762 C4.0742561,1.1816619 4.21529268,1.38228095 4.3190122,1.61118571 C4.42218293,1.83956667 4.47431707,2.08523333 4.47431707,2.34504286 L4.47431707,2.51580476 L3.3317561,2.62737619 L3.3317561,2.34504286 C3.3317561,2.12085238 3.24943902,1.93175714 3.0842561,1.77932857 C2.92017073,1.6269 2.72480488,1.5499 2.4992561,1.5499 C2.26437805,1.5499 2.06681707,1.6269 1.90657317,1.77932857 C1.74687805,1.93175714 1.66730488,2.12085238 1.66730488,2.34504286 C1.66730488,2.59542381 1.70736585,2.83375714 1.78693902,3.05794762 C1.8665122,3.2821381 1.97242683,3.5021381 2.10413415,3.71794762 C2.2265122,3.92432857 2.3697439,4.13123333 2.53437805,4.33656667 C2.6990122,4.54347143 2.86803659,4.75718571 3.042,4.97718571 C3.21596341,5.19718571 3.38828049,5.42347143 3.55730488,5.65656667 C3.72632927,5.8896619 3.88163415,6.14161429 4.02267073,6.41032857 C4.18236585,6.7256619 4.31187805,7.05932857 4.41065854,7.41394762 C4.50943902,7.76804286 4.55882927,8.1609 4.55882927,8.59147143 C4.55882927,8.85232857 4.5045,9.09694762 4.39639024,9.32532857 C4.28828049,9.55423333 4.14285366,9.75380476 3.95956098,9.92456667 C3.77571951,10.0953286 3.5622439,10.2294238 3.3174878,10.3289476 C3.07273171,10.4269 2.8142561,10.4761381 2.5415122,10.4761381 C2.26876829,10.4761381 2.01029268,10.4269 1.76608537,10.3289476 C1.52132927,10.2294238 1.30730488,10.0953286 1.1240122,9.92456667 C0.940719512,9.75380476 0.794743902,9.55423333 0.686634146,9.32532857 C0.57852439,9.09694762 0.524743902,8.85232857 0.524743902,8.59147143 L0.524743902,8.42070952 L1.66730488,8.3091381 L1.66730488,8.59147143 C1.66730488,8.81670952 1.7540122,9.00475714 1.92797561,9.15718571 C2.10193902,9.30961429 2.30608537,9.38556667 2.5415122,9.38556667 C2.76760976,9.38556667 2.9690122,9.30961429 3.14791463,9.15718571 C3.32681707,9.00475714 3.41626829,8.81670952 3.41626829,8.59147143 C3.41626829,8.26042381 3.37895122,7.9571381 3.30321951,7.68318571 C3.22803659,7.40923333 3.12431707,7.15518571 2.99260976,6.92209048 C2.86145122,6.67956667 2.71108537,6.45328095 2.5415122,6.2416619 C2.3724878,6.0321381 2.20071951,5.82209048 2.0267561,5.61675714 C1.8522439,5.40985238 1.68102439,5.19928095 1.512,4.98347143 C1.34297561,4.76870952 1.18767073,4.53928095 1.04608537,4.29675714 C0.886390244,4.02751905 0.759621951,3.73628095 0.665780488,3.42094762 C0.571390244,3.10718571 0.524743902,2.7489 0.524743902,2.34504286 C0.524743902,2.08523333 0.576329268,1.83956667 0.68004878,1.61118571 C0.783219512,1.38228095 0.924256098,1.1816619 1.10315854,1.01194762 C1.2815122,0.841185714 1.49059756,0.707090476 1.73096341,0.607566667 C1.97023171,0.508566667 2.2265122,0.459328571 2.4992561,0.459328571" transform="translate(12.622 .064)"/><path fill="#FEFEFE" d="M2.10857927,0.459328571 C2.38132317,0.459328571 2.63760366,0.508566667 2.87796951,0.607566667 C3.1172378,0.707090476 3.32687195,0.841185714 3.50522561,1.01194762 C3.68412805,1.1816619 3.82461585,1.38228095 3.92833537,1.61118571 C4.0315061,1.83956667 4.08364024,2.08523333 4.08364024,2.34504286 L4.08364024,2.51580476 L2.94107927,2.62737619 L2.94107927,2.34504286 C2.94107927,2.12085238 2.8587622,1.93175714 2.69412805,1.77932857 C2.5294939,1.6269 2.33467683,1.5499 2.10857927,1.5499 C1.87370122,1.5499 1.67614024,1.6269 1.51644512,1.77932857 C1.35620122,1.93175714 1.27662805,2.12085238 1.27662805,2.34504286 C1.27662805,2.59542381 1.31668902,2.83375714 1.3962622,3.05794762 C1.47638415,3.2821381 1.58229878,3.5021381 1.7140061,3.71794762 C1.83583537,3.92432857 1.97906707,4.13123333 2.14425,4.33656667 C2.30833537,4.54347143 2.47735976,4.75718571 2.65187195,4.97718571 C2.82528659,5.19718571 2.99760366,5.42347143 3.16662805,5.65656667 C3.33620122,5.8896619 3.49095732,6.14161429 3.63254268,6.41032857 C3.7922378,6.7256619 3.92175,7.05932857 4.02053049,7.41394762 C4.11931098,7.76804286 4.16815244,8.1609 4.16815244,8.59147143 C4.16815244,8.85232857 4.11382317,9.09694762 4.0062622,9.32532857 C3.89705488,9.55423333 3.75272561,9.75380476 3.56888415,9.92456667 C3.38559146,10.0953286 3.17156707,10.2294238 2.92735976,10.3289476 C2.6815061,10.4269 2.42357927,10.4761381 2.15138415,10.4761381 C1.87809146,10.4761381 1.61961585,10.4269 1.37540854,10.3289476 C1.13065244,10.2294238 0.916628049,10.0953286 0.733335366,9.92456667 C0.550591463,9.75380476 0.404067073,9.55423333 0.295957317,9.32532857 C0.187847561,9.09694762 0.134067073,8.85232857 0.134067073,8.59147143 L0.134067073,8.42070952 L1.27662805,8.3091381 L1.27662805,8.59147143 C1.27662805,8.81670952 1.36333537,9.00475714 1.53729878,9.15718571 C1.7112622,9.30961429 1.91595732,9.38556667 2.15138415,9.38556667 C2.37693293,9.38556667 2.57888415,9.30961429 2.75778659,9.15718571 C2.93614024,9.00475714 3.02559146,8.81670952 3.02559146,8.59147143 C3.02559146,8.26042381 2.98827439,7.9571381 2.91254268,7.68318571 C2.83735976,7.40923333 2.73418902,7.15518571 2.60248171,6.92209048 C2.47077439,6.67956667 2.32040854,6.45328095 2.15138415,6.2416619 C1.98181098,6.0321381 1.81059146,5.82209048 1.63662805,5.61675714 C1.46211585,5.40985238 1.29034756,5.19928095 1.12187195,4.98347143 C0.95229878,4.76870952 0.796993902,4.53928095 0.655957317,4.29675714 C0.496262195,4.02751905 0.368945122,3.73628095 0.275103659,3.42094762 C0.180713415,3.10718571 0.134067073,2.7489 0.134067073,2.34504286 C0.134067073,2.08523333 0.185652439,1.83956667 0.289371951,1.61118571 C0.392542683,1.38228095 0.533579268,1.1816619 0.712481707,1.01194762 C0.890835366,0.841185714 1.10046951,0.707090476 1.34028659,0.607566667 C1.58010366,0.508566667 1.83583537,0.459328571 2.10857927,0.459328571" transform="translate(20.305 .064)"/><path fill="#FEFEFE" d="M18.551 10.301L15.194 10.301 15.194.621 18.551.621 18.551 1.712 16.336 1.712 16.336 4.781 18.363 4.781 18.363 5.872 16.336 5.872 16.336 9.211 18.551 9.211zM24.927 10.301L21.838 10.301 21.838.621 22.98.621 22.98 9.211 24.927 9.211z" transform="translate(12.622 .064)"/><g transform="translate(40.61 .064)"><mask id="b" fill="#fff"><use xlink:href="#a"/></mask><path fill="#FEFEFE" d="M2.86287805,8.59168095 L2.86287805,2.34472857 C2.86287805,2.1205381 2.78056098,1.93144286 2.61592683,1.77901429 C2.45129268,1.62658571 2.25647561,1.55010952 2.03037805,1.55010952 C1.7955,1.55010952 1.59793902,1.62658571 1.4382439,1.77901429 C1.278,1.93144286 1.19842683,2.1205381 1.19842683,2.34472857 L1.19842683,8.59168095 C1.19842683,8.81691905 1.278,9.00496667 1.4382439,9.15739524 C1.59793902,9.30982381 1.7955,9.38577619 2.03037805,9.38577619 C2.25647561,9.38577619 2.45129268,9.30982381 2.61592683,9.15739524 C2.78056098,9.00496667 2.86287805,8.81691905 2.86287805,8.59168095 Z M4.00543902,8.59168095 C4.00543902,8.8525381 3.95330488,9.09715714 3.85068293,9.32501429 C3.74641463,9.55444286 3.60592683,9.75401429 3.42702439,9.92477619 C3.24812195,10.0955381 3.03903659,10.2296333 2.79976829,10.3286333 C2.55940244,10.4271095 2.30312195,10.4763476 2.03037805,10.4763476 C1.75763415,10.4763476 1.50190244,10.4271095 1.26153659,10.3286333 C1.02226829,10.2296333 0.812634146,10.0955381 0.633731707,9.92477619 C0.455378049,9.75401429 0.314341463,9.55444286 0.210621951,9.32501429 C0.10745122,9.09715714 0.0558658537,8.8525381 0.0558658537,8.59168095 L0.0558658537,2.34472857 C0.0558658537,2.08491905 0.10745122,1.83925238 0.210621951,1.61139524 C0.314341463,1.38196667 0.455378049,1.18187143 0.633731707,1.01163333 C0.812634146,0.840871429 1.02226829,0.70677619 1.26153659,0.60777619 C1.50190244,0.508252381 1.75763415,0.459538095 2.03037805,0.459538095 C2.30312195,0.459538095 2.55940244,0.508252381 2.79976829,0.60777619 C3.03903659,0.70677619 3.24812195,0.840871429 3.42702439,1.01163333 C3.60592683,1.18187143 3.74641463,1.38196667 3.85068293,1.61139524 C3.95330488,1.83925238 4.00543902,2.08491905 4.00543902,2.34472857 L4.00543902,8.59168095 Z" mask="url(#b)"/></g></g></svg>