<svg xmlns="http://www.w3.org/2000/svg" width="139" height="26" viewBox="0 0 139 26"><path fill="#2B3138" fill-rule="evenodd" d="M122.105373,11.6562574 C121.57706,13.0052987 119.673849,16.0119754 117.306869,18.0093148 C115.25662,19.7379209 112.689332,21.0200622 110.517457,20.7768703 C108.757317,20.5799006 107.75062,19.4710926 107.319404,18.0791734 C105.983635,19.5561835 104.425677,20.8183653 103.013037,20.8183653 C101.39137,20.8183653 100.080347,19.3786481 99.8729002,17.0717391 C98.629798,18.7935168 96.6964344,20.7952542 95.0742413,20.7952542 C93.7958625,20.7952542 92.7591542,19.9511734 92.4148133,18.0980825 C91.0090179,19.5824461 89.2852073,20.9402239 87.864143,20.7831734 C86.7647793,20.6623653 86.214571,19.827739 85.9228816,19.128628 C85.9134044,19.1386077 85.9049801,19.1485875 85.8960294,19.1575168 C85.8960294,19.1575168 85.84759,19.0199007 85.7912529,18.7756583 C85.2078741,20.0257592 84.0469082,20.8204663 82.613734,20.8204663 C80.5534803,20.8204663 79.2529879,19.197436 78.73595,17.4945674 C78.2778818,18.2614361 76.6451584,19.5693148 76.0401925,19.9716582 C75.2856963,20.4748501 74.5854312,20.7253956 73.8404122,20.6881027 C72.8347683,20.6392542 71.8380752,20.0036986 71.9244237,18.2714159 C72.0381509,15.9613553 73.4629009,13.7264059 73.9146509,11.4751736 C74.0920865,10.5895979 73.9051736,9.56693122 73.3149501,9.53646658 C72.5520297,9.50022415 70.7276547,11.1894362 70.1226888,12.9984059 C68.7474313,17.1100825 68.7447987,20.6881027 68.2172306,20.6881027 C67.885526,20.6881027 65.5535905,20.6881027 65.7073329,18.712628 C65.8031587,17.4872139 67.2995147,13.1465271 67.3721738,11.667416 C67.4279844,10.5496787 67.275295,9.42038577 66.6513745,9.38939587 C65.6457306,9.34054739 63.5523064,12.6475372 62.7599012,15.4471331 C62.1912648,17.458325 61.7911133,19.7788906 61.9685489,20.4013148 C61.9685489,20.4013148 60.9423709,20.7038602 59.8656474,20.7038602 C59.0774543,20.7038602 58.4603785,20.295739 58.5146096,19.2142441 C58.5267149,18.9559178 58.6277338,18.5207154 58.7798003,17.9579546 C57.5683188,19.4431588 55.8751662,20.7964097 53.4898124,20.7964097 C51.9028957,20.7964097 50.6097746,19.2668744 50.2127822,16.6600462 C48.2662557,18.7962482 45.2556421,20.9818239 42.0786498,20.8809754 C40.0984491,20.8179458 38.9301161,19.7900495 38.3920093,18.3051882 C38.3836007,18.3177786 38.3767617,18.3308915 38.3672972,18.3434805 C37.4343124,19.5641673 35.8705624,20.7958845 33.8076761,20.7958845 C31.9011648,20.7958845 30.533805,19.4076421 29.4497103,17.566632 C29.386002,17.45843 29.3233467,17.343925 29.2612179,17.2273189 C28.2755816,18.1018643 27.247824,18.8802886 26.3874983,19.4402077 C24.9385286,20.383036 23.7507105,20.8132178 22.639237,20.8132178 C18.5413697,20.8132178 18.7077485,17.456329 18.7351273,15.6967331 C18.779881,12.8141473 20.1419757,8.64731912 20.3941765,8.23079388 C20.9027901,6.74170301 24.2798582,6.65503634 24.220362,7.2737838 C24.2156233,7.32420805 22.8235173,9.6353191 22.0869226,14.3820261 C21.6904567,16.9310765 21.7246802,18.444329 23.1394264,18.5535815 C23.611184,18.5903492 24.5478544,18.2741472 25.4529339,17.6596017 C25.890468,17.3617836 27.0677558,16.5019452 28.3640361,15.1825109 C27.2367672,12.1197635 26.5975778,8.4030767 26.7339452,8.0779454 C27.2236043,6.90453129 29.299127,6.81313735 29.8282747,6.8866727 C29.8667103,6.89192523 30.0046573,6.83782422 30.1557671,7.43451107 C30.1973618,7.60049087 30.3521573,10.0691777 30.864983,12.6549958 C32.5103428,10.1852585 33.7829299,7.27798582 33.8787557,7.12198583 C34.2009829,6.59883433 37.4343124,6.76481412 37.4343124,8.36420802 C37.4343124,8.99346053 34.4252784,13.0562887 31.6716042,15.686228 C32.2949981,17.4174603 33.1700663,18.7305916 34.3984261,18.7305916 C36.0843276,18.7305916 37.7786533,15.994026 38.0429639,15.6709957 C38.0619434,15.6483673 38.0740039,15.6362955 38.0784131,15.6376471 C38.0740168,15.6362299 38.0619423,15.6483058 38.0429112,15.6709957 C38.2487787,10.8218645 41.7532634,6.83152119 45.7026535,6.83152119 C47.3074716,6.83152119 48.6969451,8.05115752 48.6548239,9.78081404 C48.539517,14.5096624 41.6279528,16.4851371 41.6279528,16.4851371 C41.6279528,16.4851371 41.6963998,16.8318038 42.034949,17.2635613 C42.4256233,17.762026 42.9979452,18.028329 43.774555,18.0519654 C46.1586156,18.1286522 48.555839,16.1122078 50.0990549,14.3883291 C50.102214,14.2985109 50.102214,14.211319 50.1074791,14.1193998 C50.3791609,9.31754133 53.3818768,0.264814282 57.3528539,0.0547132773 C59.3404486,-0.0503372251 60.5598576,1.05269305 60.2181493,3.67422834 C59.5342062,8.91572316 54.9435207,12.2909958 52.920123,14.6604099 C52.5947366,17.3129351 53.5071874,18.2499855 54.2490472,18.2499855 C55.5679676,18.2499855 57.3423236,17.1543088 58.5627857,15.6631169 C59.1888122,14.897824 59.6605698,14.163521 60.0191266,13.4932988 C59.6856825,14.8266789 59.3149311,16.0773867 59.0247945,17.0870975 C59.3151686,16.0773684 59.6859342,14.8266201 60.0193899,13.4931937 C60.5717042,11.2839817 61.0208217,8.85048679 60.8307497,6.90442624 C60.8307497,6.90442624 60.9381588,6.88814341 61.2851323,6.90442624 C62.2907762,6.95379997 63.8761132,7.29941613 63.7834466,9.03064841 C63.7681776,9.32006254 63.7186852,9.64256758 63.6697193,9.92988071 C64.9786359,8.07678984 66.4692003,6.7400222 68.0992912,6.81986058 C69.5561586,6.89182018 70.3306623,8.08782015 70.3280298,10.2576383 C71.5969312,8.51222418 73.3070524,6.8329919 74.7628668,6.90442624 C75.7922039,6.95590098 76.8447076,7.56992117 77.1142834,8.72337569 C77.8103364,11.6915776 75.0161205,15.5033351 74.9081849,17.6679007 C74.8923895,17.9961835 75.3778364,19.3728704 78.5016508,15.1088705 C78.5084955,15.0988907 78.5153402,15.0983654 78.5227114,15.0957392 C78.9197038,11.1064463 82.0119272,6.68854745 87.1854649,6.908103 C89.1562111,6.99214341 89.7201088,8.11250702 89.9122868,8.77485043 C90.1997641,10.0674969 89.0530141,10.6205878 88.85873,10.4598605 C88.1184498,9.85161808 87.1812528,9.58741607 86.1724498,9.5417191 C83.7041468,9.42931506 81.3021848,11.5350524 81.1584461,14.6933957 C81.0799954,16.4199007 81.9503249,17.6374361 83.1734196,17.6374361 C84.3454423,17.6374361 85.1399536,16.6315775 85.7707188,15.7864462 C85.9012945,15.070527 86.1376998,14.2747695 86.5468021,13.4264867 C86.700018,13.1118604 87.1507149,12.7373554 88.9092755,12.755214 C89.170427,12.7578402 89.5963778,12.7410322 89.4652755,13.4522241 C89.2620406,14.548426 88.8966391,14.9943654 88.7292073,16.1415169 C88.4838513,17.8191734 89.0551202,17.9599411 89.3852452,17.9961835 C90.3324459,18.1007088 91.397586,17.1715371 92.3105633,16.0664058 C92.3121428,16.0222846 92.3116163,15.9813149 92.3147754,15.9361432 C92.4353474,13.9086685 93.3541163,10.820709 93.9738246,8.23804237 C92.4569345,8.10095146 91.8345936,7.75586056 91.8345936,7.06830502 C91.8345936,6.37969898 92.4211315,5.9658 92.4211315,5.9658 C92.4211315,5.9658 93.1456163,6.10341616 94.3892451,6.20741615 C94.526139,5.24305254 94.7399041,3.71509298 94.7399041,2.75020412 C94.7399041,2.13565868 94.6940973,1.49747688 94.5845822,0.894486994 C94.5593095,0.753194068 94.874692,0.483214277 95.0468625,0.490567812 C97.2282147,0.592466799 97.6736465,1.32939607 97.6736465,2.50963847 C97.6736465,3.301194 97.3903813,5.03715356 97.1155404,6.31036565 L97.5293813,6.31036565 C99.1852715,6.31036565 100.566321,6.24155757 101.739396,6.06874949 C101.842593,5.40010304 102.153237,4.3133556 102.279601,2.99129502 C102.407018,1.66503243 102.351207,0.10345671 102.351207,0.10345671 C103.934438,0.10345671 105.472915,0.552547608 105.472915,2.47287079 C105.472915,3.16147684 105.18965,4.14212328 104.914283,5.3806687 C107.536328,4.48563842 107.813275,3.28070916 107.813275,3.28070916 C107.813275,3.28070916 108.985824,3.90155763 108.985824,5.31133537 C108.985824,6.68959796 107.882249,7.58357774 104.292995,7.99747672 C103.774904,10.2697191 103.046733,13.3545271 103.046733,15.0752543 C103.046733,16.4193755 103.357377,17.8995371 104.497283,17.8995371 C105.358135,17.8995371 106.249525,17.2219613 107.06773,16.2859614 C107.066677,15.9603048 107.085631,15.6262442 107.124067,15.2853553 C107.671116,10.4162645 111.847961,6.57089089 115.077604,6.93278987 C116.585017,7.10034542 117.799688,8.36672923 117.619093,10.0879817 C117.124695,14.7926685 110.450589,16.2549715 110.450589,16.2549715 C110.450589,16.2549715 110.486392,16.6047896 110.770184,17.0596583 C111.097676,17.5843856 111.615241,17.8916583 112.346044,17.9735977 C113.532809,18.1064866 114.957032,17.6027694 116.127476,16.6210725 C118.068737,14.9917392 119.427146,12.3917392 119.975248,11.1836585 C120.148472,11.3107696 120.344335,11.4152948 120.568631,11.4856786 L120.892806,11.5215748 L120.56821,11.4855211 C120.344441,11.4151372 120.14805,11.310612 119.975354,11.1835009 C119.39566,10.7543696 119.112922,10.0263696 119.225596,9.15445042 C119.320369,8.4180464 119.749479,6.57546059 122.033501,6.98673331 C123.526172,7.25618784 123.040198,9.07566255 122.579497,9.66342011 C122.534217,9.72119788 122.579497,9.80996556 122.628463,9.86511707 C122.67585,9.91974333 122.750088,9.94810697 122.823274,9.93970293 C123.685706,9.83202616 124.589732,9.47853122 125.510081,8.89077366 C126.731596,8.10972318 128.126334,9.0341676 127.949425,10.5211575 C127.905198,10.8982888 127.234944,11.6698847 126.758975,12.2408342 C126.082403,13.0502483 125.019369,14.5582483 124.826137,16.0567937 C124.547611,18.216632 125.270516,18.582733 125.942876,18.582733 C127.526107,18.582733 128.146342,16.4685917 128.442243,16.076228 L128.44277,16.0746523 C128.56966,15.5903695 128.813963,15.233723 129.18305,14.9921068 C129.69219,14.6753796 130.19238,14.5251574 130.665717,14.5430159 L130.753118,14.5456422 C130.991103,14.5661271 131.161694,14.6354604 131.259626,14.755218 C131.357031,14.8744503 131.39652,15.0603897 131.377565,15.3083089 C131.3723,15.3645109 131.354399,15.4601068 131.334391,15.5683088 C131.303853,15.7337634 131.269103,15.9296826 131.25752,16.0862078 C131.131156,17.6661674 131.925141,18.7560663 133.279338,18.8626926 L133.39991,18.8700461 C134.32605,18.903137 135.045796,18.1620058 135.130565,17.2422886 C135.238501,16.0567937 133.813224,15.289925 132.514312,14.4547735 C131.004793,13.4862079 129.942285,12.3127938 130.224497,10.6419655 C130.753118,7.52459188 133.147709,6.92580401 134.932069,6.92580401 C135.98194,6.92580401 136.911766,7.22782421 137.562012,7.69529894 C139.047311,8.76523831 138.611357,10.0878241 138.347046,10.4938443 C137.920042,11.1509352 137.028126,11.2722686 137.028126,11.2722686 C136.963891,11.2412787 136.906501,11.1372787 136.92177,10.940309 C136.927561,10.8804302 136.94441,8.71428882 134.919959,8.71428882 C133.744251,8.71428882 132.981857,9.68390496 132.922887,10.4077029 C132.848649,11.3594605 133.201414,11.8206322 134.30183,12.467218 C136.045649,13.4368342 138.605039,14.8429351 138.153815,17.3026926 C137.827902,19.0727936 136.343656,20.8197835 133.098743,20.8197835 C131.501296,20.8197835 130.315058,20.1816017 129.461577,19.3658845 C129.246232,19.152632 129.065111,18.9315007 128.911368,18.7035411 C128.236903,19.5512986 126.803202,20.8197835 124.741895,20.8197835 C123.0581,20.8197835 121.522255,19.156834 121.745497,17.4213997 C121.876073,16.4034603 122.1546,15.2915008 122.838016,14.2362685 C123.541967,13.1915412 124.181683,12.4199453 124.741895,11.9419655 C124.816134,11.8778847 124.84088,11.7738847 124.800865,11.6835413 C124.7698,11.6105312 124.702406,11.5622079 124.624482,11.5527534 C124.60816,11.5501271 124.589206,11.5490766 124.571304,11.5527534 C123.760471,11.6467736 123.02335,11.6903696 122.367838,11.685117 L122.105373,11.6562574 Z M12.9371426,0.993392042 C18.1427977,3.71420005 18.8762333,9.5980787 17.0723924,14.2266038 C14.3897978,21.1126643 8.02159722,22.3716945 4.41707458,19.2658764 C3.94900262,20.9309269 3.57622991,22.5376743 3.48303673,23.826644 C3.45197233,24.2541995 3.4472337,24.654442 3.48724885,25.0021591 C3.51304809,25.232745 3.42933218,25.6293106 2.94177917,25.6282601 C1.79608222,25.6266844 0.238650445,24.7805026 0.0233057534,23.308745 C-0.0561980325,22.7666844 0.0759572673,22.1610683 0.29446105,21.4819168 C1.3290633,18.2689472 2.50898372,14.7245432 2.68957841,12.217513 C2.71748372,11.8304019 2.70800644,11.4805837 2.69852917,11.1517756 C4.03113899,10.5634928 6.60579801,9.74935142 6.50470711,11.1423211 C6.44468438,11.9758968 6.21196469,13.3940786 5.63227152,15.3753311 C5.71809349,16.5818361 6.3446465,17.6039775 8.30380933,18.0425633 C9.3842184,18.2857552 12.535938,17.4752906 13.9059304,13.8074523 C15.1653546,10.4363817 15.0174039,5.20644244 9.98391914,3.11436169 C7.39346466,2.03811929 3.81790036,3.10543239 2.64219205,6.38300807 C2.16885494,7.69981612 0.417139077,4.75262427 1.00157088,3.94531116 C1.12898754,3.76987682 1.26008981,3.59916975 1.39382466,3.43476572 C4.23016171,-0.05448672 9.27944189,-0.917476597 12.9371426,0.993392042 Z M24.7091786,4.58811518 C23.713012,5.20686264 22.4930764,5.04771113 21.9860423,4.23567075 C21.4779552,3.42047885 21.8738946,2.26019605 22.8705878,1.64092334 C23.8667544,1.02217588 25.0856369,1.18132739 25.5931975,1.99494353 C26.1012846,2.80803442 25.7048187,3.96936772 24.7091786,4.58811518 Z M43.9393543,9.70727869 C40.5922975,11.8156423 41.2309604,15.0196826 41.2309604,15.0196826 C41.2309604,15.0196826 46.7767444,12.2715615 45.9306345,9.99301606 C45.6652709,9.27762214 44.4785058,9.36691506 43.9393543,9.70727869 Z M56.9574411,3.15632936 C56.275604,3.19414754 54.1105737,8.08267267 53.1833806,12.1092584 C54.658676,10.2603696 57.1891077,6.84570301 57.5355547,4.25410711 C57.59821,3.78820813 57.6624448,3.11851118 56.9574411,3.15632936 Z M110.290529,13.4984463 C110.141525,14.2422038 110.194703,14.7653553 110.194703,14.7653553 C110.194703,14.7653553 115.646241,12.4327089 115.034957,10.099012 C114.842779,9.36681001 113.717089,9.36943628 113.181097,9.66830496 C111.723176,10.4824463 110.969733,11.5618403 110.583798,12.5177998 C110.54115,12.7898806 110.440586,13.1228907 110.290529,13.4984463 Z M100.0119,14.282123 C100.252518,12.6995372 100.911188,10.1326282 101.324502,8.23804237 C100.1509,8.27218378 98.770904,8.3073757 96.6658965,8.3073757 C96.2162526,10.40681 95.5249382,13.2851938 95.5249382,14.7653553 C95.5249382,16.3831331 96.0419761,17.2786886 96.9733814,17.2786886 C98.1464571,17.2786886 99.1821124,15.8326684 100.0119,14.282123 Z"/></svg>